<?xml version="1.0" encoding="utf-8"?>
<!-- Generator: Adobe Illustrator 19.0.1, SVG Export Plug-In . SVG Version: 6.00 Build 0)  -->
<svg version="1.1" id="Layer_1" xmlns="http://www.w3.org/2000/svg" xmlns:xlink="http://www.w3.org/1999/xlink" x="0px" y="0px"
	 viewBox="0 0 20 14" style="enable-background:new 0 0 20 14;" xml:space="preserve">
<style type="text/css">
	.st0{fill:#A8A8A8;}
</style>
<path class="st0" d="M19.6,2.2c-0.2-0.9-0.9-1.5-1.8-1.8C16.3,0,10,0,10,0S3.7,0,2.2,0.4C1.3,0.6,0.6,1.3,0.4,2.2C0,3.7,0,7,0,7
	s0,3.3,0.4,4.8c0.2,0.9,0.9,1.5,1.8,1.8C3.7,14,10,14,10,14s6.3,0,7.8-0.4c0.9-0.2,1.5-0.9,1.8-1.8C20,10.3,20,7,20,7
	S20,3.7,19.6,2.2z M8,10V4l5.2,3L8,10z"/>
</svg>
