<?xml version="1.0" encoding="utf-8"?>
<!-- Generator: Adobe Illustrator 25.0.1, SVG Export Plug-In . SVG Version: 6.00 Build 0)  -->
<svg version="1.1" id="Layer_1" xmlns="http://www.w3.org/2000/svg" xmlns:xlink="http://www.w3.org/1999/xlink" x="0px" y="0px"
	 viewBox="0 0 1000 1000" style="enable-background:new 0 0 1000 1000;" xml:space="preserve">
<style type="text/css">
	.st0{fill:url(#SVGID_1_);}
	.st1{fill:#FFEED9;}
	.st2{fill:#F3796F;}
	.st3{fill:#22183F;}
	.st4{fill:#00A8B3;}
	.st5{fill:url(#SVGID_2_);}
	.st6{fill:url(#SVGID_3_);}
	.st7{fill:url(#SVGID_4_);}
	.st8{fill:url(#SVGID_5_);}
	.st9{fill:url(#SVGID_6_);}
	.st10{fill:url(#SVGID_7_);}
	.st11{fill:url(#SVGID_8_);}
	.st12{fill:url(#SVGID_9_);}
</style>
<radialGradient id="SVGID_1_" cx="499.6667" cy="500.4866" r="562.6" gradientTransform="matrix(1.3834 0 0 1.3834 -191.2596 -192.3948)" gradientUnits="userSpaceOnUse">
	<stop  offset="7.784430e-02" style="stop-color:#2F5B78"/>
	<stop  offset="0.2902" style="stop-color:#2F5775"/>
	<stop  offset="0.491" style="stop-color:#2C4C6B"/>
	<stop  offset="0.6872" style="stop-color:#28395B"/>
	<stop  offset="0.8794" style="stop-color:#231E45"/>
	<stop  offset="0.9162" style="stop-color:#22183F"/>
</radialGradient>
<rect class="st0" width="1000" height="1000"/>
<polygon class="st1" points="1000,772.3 1000,0 227.7,0 "/>
<path class="st2" d="M349.3,0l355.6,355.6c15.8,15.8,41.4,15.8,57.2,0c15.8-15.8,15.8-41.4,0-57.2L463.6,0H349.3z"/>
<path class="st3" d="M0,45.5v114.3l381,381c15.8,15.8,41.4,15.8,57.2,0c15.8-15.8,15.8-41.4,0-57.2L0,45.5z"/>
<path class="st3" d="M594.6,588c-15.8,15.8-15.8,41.4,0,57.2l138.9,139c15.8,15.8,41.4,15.8,57.2,0c15.8-15.8,15.8-41.4,0-57.2
	L651.8,588C636,572.2,610.4,572.2,594.6,588z"/>
<polygon class="st3" points="524,0 1000,476 1000,425.6 574.4,0 "/>
<path class="st1" d="M104,0h114.3l296.7,296.7c15.8,15.8,15.8,41.4,0,57.2c-15.8,15.8-41.4,15.8-57.2,0L104,0z"/>
<path class="st1" d="M128.7,332.9c15.8,15.8,15.8,41.4,0,57.2c-15.8,15.8-41.4,15.8-57.2,0L0,318.5V204.1L128.7,332.9z"/>
<path class="st4" d="M267.5,580c-15.8,15.8-15.8,41.4,0,57.2l330,330c15.8,15.8,41.4,15.8,57.2,0c15.8-15.8,15.8-41.4,0-57.2
	l-330-330C308.9,564.2,283.3,564.2,267.5,580z"/>
<path class="st1" d="M475.8,1000L373.3,897.6c-15.8-15.8-15.8-41.4,0-57.2c15.8-15.8,41.4-15.8,57.2,0L590.1,1000H475.8z"/>
<path class="st3" d="M254.1,924.4c-15.8-15.8-41.4-15.8-57.2,0c-15.8,15.8-15.8,41.4,0,57.2l18.4,18.4h114.3L254.1,924.4z"/>
<path class="st1" d="M798.3,1000l-50.4-50.4c-15.8-15.8-15.8-41.4,0-57.2c15.8-15.8,41.4-15.8,57.2,0L912.6,1000H798.3z"/>
<path class="st2" d="M884,1000L662.3,778.3c-15.8-15.8-15.8-41.4,0-57.2c15.8-15.8,41.4-15.8,57.2,0L998.3,1000H884z"/>
<path class="st4" d="M687.5,561.6c-15.8-15.8-15.8-41.4,0-57.2c15.8-15.8,41.4-15.8,57.2,0L1000,759.8v114.3L687.5,561.6z"/>
<path class="st4" d="M818.5,324.7c-15.8-15.8-15.8-41.4,0-57.2c15.8-15.8,41.4-15.8,57.2,0L1000,391.9v114.3L818.5,324.7z"/>
<path class="st2" d="M199.8,0l664.7,664.7c15.8,15.8,41.4,15.8,57.2,0c15.8-15.8,15.8-41.4,0-57.2L314.1,0H199.8z"/>
<linearGradient id="SVGID_2_" gradientUnits="userSpaceOnUse" x1="826.5604" y1="562.5527" x2="781.3653" y2="607.7478">
	<stop  offset="0.2412" style="stop-color:#00A8B3"/>
	<stop  offset="0.2825" style="stop-color:#0498A6"/>
	<stop  offset="0.4074" style="stop-color:#0F6A81"/>
	<stop  offset="0.5272" style="stop-color:#174765"/>
	<stop  offset="0.6391" style="stop-color:#1D2D50"/>
	<stop  offset="0.7402" style="stop-color:#211E44"/>
	<stop  offset="0.8208" style="stop-color:#22183F"/>
</linearGradient>
<path class="st5" d="M744.6,504.4c-12.9-12.9-32.3-15.2-47.5-7.1l167.4,167.4c12.9,12.9,32.3,15.2,47.5,7.1L744.6,504.4z"/>
<linearGradient id="SVGID_3_" gradientUnits="userSpaceOnUse" x1="710.0162" y1="479.9183" x2="833.212" y2="356.7225">
	<stop  offset="0.1856" style="stop-color:#00A8B3"/>
	<stop  offset="0.3545" style="stop-color:#01A6B1"/>
	<stop  offset="0.4404" style="stop-color:#029EAB"/>
	<stop  offset="0.5076" style="stop-color:#0591A1"/>
	<stop  offset="0.565" style="stop-color:#0A7E91"/>
	<stop  offset="0.6163" style="stop-color:#10667E"/>
	<stop  offset="0.6631" style="stop-color:#174865"/>
	<stop  offset="0.7057" style="stop-color:#1F2449"/>
	<stop  offset="0.7186" style="stop-color:#22183F"/>
</linearGradient>
<path class="st6" d="M561.1,161.3c-15.8-15.8-41.4-15.8-57.2,0c-15.8,15.8-15.8,41.4,0,57.2L1000,714.6V600.2L561.1,161.3z"/>
<path class="st3" d="M493.5,179.4c-3.6,13.5-0.2,28.5,10.4,39.1l428.1,428.1c3.6-13.5,0.2-28.5-10.4-39.1L493.5,179.4z"/>
<linearGradient id="SVGID_4_" gradientUnits="userSpaceOnUse" x1="573.7021" y1="317.7658" x2="652.9639" y2="238.5041">
	<stop  offset="0.3351" style="stop-color:#00A8B3"/>
	<stop  offset="0.4099" style="stop-color:#02A0AC"/>
	<stop  offset="0.5301" style="stop-color:#088899"/>
	<stop  offset="0.6807" style="stop-color:#11627B"/>
	<stop  offset="0.8542" style="stop-color:#1D2D50"/>
	<stop  offset="0.9162" style="stop-color:#22183F"/>
</linearGradient>
<path class="st7" d="M561.1,161.3c-14.6-14.6-37.7-15.7-53.6-3.2l197.4,197.4c14.7,14.6,37.7,15.7,53.6,3.2L561.1,161.3z"/>
<linearGradient id="SVGID_5_" gradientUnits="userSpaceOnUse" x1="749.7198" y1="250.2812" x2="880.6913" y2="119.3097">
	<stop  offset="0.2515" style="stop-color:#00A8B3"/>
	<stop  offset="0.419" style="stop-color:#01A6B1"/>
	<stop  offset="0.5042" style="stop-color:#029EAB"/>
	<stop  offset="0.5708" style="stop-color:#0591A1"/>
	<stop  offset="0.6278" style="stop-color:#0A7E91"/>
	<stop  offset="0.6787" style="stop-color:#10667E"/>
	<stop  offset="0.7251" style="stop-color:#174865"/>
	<stop  offset="0.7674" style="stop-color:#1F2449"/>
	<stop  offset="0.7801" style="stop-color:#22183F"/>
</linearGradient>
<polygon class="st8" points="688.7,0 574.4,0 1000,425.6 1000,311.3 "/>
<linearGradient id="SVGID_6_" gradientUnits="userSpaceOnUse" x1="962.9266" y1="295.4165" x2="906.3732" y2="351.9698">
	<stop  offset="0.2945" style="stop-color:#00A8B3"/>
	<stop  offset="0.4183" style="stop-color:#0691A0"/>
	<stop  offset="0.6775" style="stop-color:#145470"/>
	<stop  offset="0.9146" style="stop-color:#22183F"/>
</linearGradient>
<path class="st9" d="M832.8,258.3L1000,425.6v-33.7L875.7,267.6C864.1,256,847.2,252.9,832.8,258.3z"/>
<polygon class="st2" points="722.2,0 1000,277.8 1000,163.4 836.6,0 "/>
<polygon class="st4" points="910.4,0 1000,89.6 1000,0 "/>
<path class="st2" d="M236.2,493.3c-15.8,15.8-15.8,41.4,0,57.2l104.3,104.3c15.8,15.8,41.4,15.8,57.2,0c15.8-15.8,15.8-41.4,0-57.2
	L293.4,493.3C277.6,477.5,252,477.5,236.2,493.3z"/>
<path class="st1" d="M198.2,240.2c-15.8,15.8-15.8,41.4,0,57.2l138.9,138.9c15.8,15.8,41.4,15.8,57.2,0c15.8-15.8,15.8-41.4,0-57.2
	l-138.9-139C239.5,224.4,214,224.4,198.2,240.2z"/>
<path class="st3" d="M267.5,580c-0.3,0.3-0.5,0.6-0.8,0.9l73.8,73.8c15.8,15.8,41.4,15.8,57.2,0c0.3-0.3,0.5-0.6,0.8-0.9L324.7,580
	C308.9,564.2,283.3,564.2,267.5,580z"/>
<path class="st4" d="M98.5,86.8c-15.8,15.8-15.8,41.4,0,57.2l204.9,204.9c15.8,15.8,41.4,15.8,57.2,0c15.8-15.8,15.8-41.4,0-57.2
	L155.6,86.8C139.8,71,114.2,71,98.5,86.8z"/>
<linearGradient id="SVGID_7_" gradientUnits="userSpaceOnUse" x1="241.9966" y1="331.9197" x2="307.0508" y2="266.8655">
	<stop  offset="0.3054" style="stop-color:#00A8B3"/>
	<stop  offset="0.3495" style="stop-color:#0498A6"/>
	<stop  offset="0.4828" style="stop-color:#0F6A81"/>
	<stop  offset="0.6108" style="stop-color:#174765"/>
	<stop  offset="0.7304" style="stop-color:#1D2D50"/>
	<stop  offset="0.8383" style="stop-color:#211E44"/>
	<stop  offset="0.9245" style="stop-color:#22183F"/>
</linearGradient>
<path class="st10" d="M362.2,347.1L255.3,240.2c-15.8-15.8-41.4-15.8-57.2,0c-0.6,0.6-1.1,1.2-1.7,1.8l106.9,106.9
	c15.8,15.8,41.4,15.8,57.2,0C361.1,348.3,361.7,347.7,362.2,347.1z"/>
<path class="st3" d="M0,386.4v114.3l142.1,142.1c15.8,15.8,41.4,15.8,57.2,0c15.8-15.8,15.8-41.4,0-57.2L0,386.4z"/>
<path class="st3" d="M765.9,0h114.3l31.3,31.3c15.8,15.8,15.8,41.4,0,57.2c-15.8,15.8-41.4,15.8-57.2,0L765.9,0z"/>
<linearGradient id="SVGID_8_" gradientUnits="userSpaceOnUse" x1="863.2058" y1="19.7666" x2="807.2854" y2="75.687">
	<stop  offset="0" style="stop-color:#00A8B3"/>
	<stop  offset="3.240890e-02" style="stop-color:#0594A3"/>
	<stop  offset="9.351892e-02" style="stop-color:#0D7388"/>
	<stop  offset="0.1619" style="stop-color:#135671"/>
	<stop  offset="0.2382" style="stop-color:#193F5F"/>
	<stop  offset="0.3259" style="stop-color:#1D2E51"/>
	<stop  offset="0.4317" style="stop-color:#202147"/>
	<stop  offset="0.5747" style="stop-color:#211A41"/>
	<stop  offset="0.9162" style="stop-color:#22183F"/>
</linearGradient>
<path class="st11" d="M911.6,88.5c2.3-2.3,4.3-4.9,5.9-7.6L836.6,0h-70.7l88.5,88.5C870.2,104.3,895.8,104.3,911.6,88.5z"/>
<path class="st4" d="M136,0h114.3l90.1,90.1c15.8,15.8,15.8,41.4,0,57.2c-15.8,15.8-41.4,15.8-57.2,0L136,0z"/>
<path class="st3" d="M340.4,90.1L250.3,0h-50.5l143.7,143.7C356.1,127.9,355.1,104.8,340.4,90.1z"/>
<path class="st4" d="M859.4,857.8c-15.8,15.8-15.8,41.4,0,57.2l43.7,43.7c15.8,15.8,41.4,15.8,57.2,0c15.8-15.8,15.8-41.4,0-57.2
	l-43.7-43.7C900.8,842,875.2,842,859.4,857.8z"/>
<linearGradient id="SVGID_9_" gradientUnits="userSpaceOnUse" x1="870.3212" y1="947.7928" x2="923.5847" y2="894.5293">
	<stop  offset="0.1437" style="stop-color:#00A8B3"/>
	<stop  offset="0.2155" style="stop-color:#0497A5"/>
	<stop  offset="0.5131" style="stop-color:#14536F"/>
	<stop  offset="0.7285" style="stop-color:#1E294D"/>
	<stop  offset="0.8383" style="stop-color:#22183F"/>
</linearGradient>
<path class="st12" d="M958.6,960.3L857.8,859.5c-14.2,15.9-13.6,40.2,1.6,55.5l43.7,43.7C918.4,973.9,942.7,974.4,958.6,960.3z"/>
<path class="st2" d="M485.5,413.3c-15.8,15.8-15.8,41.4,0,57.2l53.5,53.5c15.8,15.8,41.4,15.8,57.2,0c15.8-15.8,15.8-41.4,0-57.2
	l-53.5-53.5C526.8,397.5,501.2,397.5,485.5,413.3z"/>
<path class="st2" d="M147.8,756c-15.8,15.8-15.8,41.4,0,57.2l31.1,31.1c15.8,15.8,41.4,15.8,57.2,0c15.8-15.8,15.8-41.4,0-57.2
	L205,756C189.2,740.2,163.6,740.2,147.8,756z"/>
<path class="st2" d="M860.1,428.4c-15.8-15.8-15.8-41.4,0-57.2c15.8-15.8,41.4-15.8,57.2,0L1000,454v114.3L860.1,428.4z"/>
<path class="st3" d="M1000,522.9l-11.8-11.8c-15.8-15.8-41.4-15.8-57.2,0c-15.8,15.8-15.8,41.4,0,57.2l68.9,68.9V522.9z"/>
</svg>
