<?xml version="1.0" encoding="utf-8"?>
<!-- Svg Vector Icons : http://www.onlinewebfonts.com/icon -->
<!DOCTYPE svg PUBLIC "-//W3C//DTD SVG 1.1//EN" "http://www.w3.org/Graphics/SVG/1.1/DTD/svg11.dtd">
<svg version="1.1" xmlns="http://www.w3.org/2000/svg" xmlns:xlink="http://www.w3.org/1999/xlink" x="0px" y="0px" viewBox="0 0 1000 1000" enable-background="new 0 0 1000 1000" xml:space="preserve">
<metadata> Svg Vector Icons : http://www.onlinewebfonts.com/icon </metadata>
<g><g transform="translate(0.000000,511.000000) scale(0.100000,-0.100000)"><path d="M4668.4,4447.6c-469.8-89.3-848.2-291.2-1152.2-616.5c-202-216.8-357.1-474.1-448.5-744l-38.3-108.4L1666.7,2968c-1332.9-10.6-1362.6-10.6-1420-55.3c-31.9-23.4-78.6-70.1-102-102C100,2753.3,100,2751.2,100-503.4v-3256.8l51-110.5c61.7-138.2,214.7-284.9,352.9-338c104.2-40.4,221.1-40.4,4506.7-40.4h4400.4l110.5,51c129.7,57.4,267.8,197.7,331.6,338l46.8,99.9v3256.8c0,3254.6,0,3256.7-44.6,3314.1c-23.4,31.9-70.2,78.6-102.1,102c-57.4,44.6-87.1,44.6-1420,55.3l-1362.6,10.6l-36.1,106.3c-57.4,167.9-187.1,412.4-299.7,567.6c-369.9,499.6-933.2,792.9-1571,814.2C4910.7,4473.1,4764,4466.7,4668.4,4447.6z M5350.8,3892.8c70.1-17,216.8-76.5,327.4-129.7c159.4-78.6,233.8-131.8,363.5-261.5c161.6-159.4,301.9-363.5,329.5-474.1l14.9-59.5H5000H3614l14.9,59.5c27.6,110.5,167.9,314.6,327.4,471.9c182.8,180.7,384.8,299.7,639.9,376.3C4793.8,3933.1,5155.2,3941.6,5350.8,3892.8z M9353.7,2521.6c136.1-82.9,153.1-159.4,153.1-707.9c0-559.1-2.1-567.6-176.4-731.3C8860.5,640.3,7453.2,196,5967.2,21.6c-444.3-53.1-1445.6-53.1-1892-2.1C2553.2,198.1,1165,631.8,674,1080.3c-178.6,161.6-180.7,172.2-180.7,737.6c0,454.9,4.3,499.6,42.5,578.2c25.5,46.8,74.4,104.2,112.7,125.4c65.9,42.5,136.1,42.5,4351.5,42.5C9258,2564.1,9283.5,2564.1,9353.7,2521.6z M763.3,480.8C1432.9,144.9,2468.2-156.9,3463-307.9l174.3-25.5l6.4-420.9c6.4-459.2,10.6-476.2,153.1-580.3c57.4-44.7,80.8-44.7,1203.2-44.7c1122.4,0,1145.8,0,1203.2,44.7c140.3,104.2,146.7,121.2,157.3,576.1l10.6,416.7l350.8,59.5C7678.5-120.8,8548,138.6,9187.9,455.3c157.3,78.7,293.4,146.7,304,148.8c8.5,4.3,12.8-969.4,10.6-2161.9l-6.4-2170.5l-59.5-57.4l-57.4-59.5H5000H620.8l-57.4,59.5l-59.5,57.4L497.5-1560c-2.1,1192.6,0,2168.3,6.4,2168.3C508.2,608.4,625.1,551,763.3,480.8z"/></g></g>
</svg>