<?xml version="1.0" encoding="utf-8"?>
<!-- Svg Vector Icons : http://www.onlinewebfonts.com/icon -->
<!DOCTYPE svg PUBLIC "-//W3C//DTD SVG 1.1//EN" "http://www.w3.org/Graphics/SVG/1.1/DTD/svg11.dtd">
<svg version="1.1" xmlns="http://www.w3.org/2000/svg" xmlns:xlink="http://www.w3.org/1999/xlink" x="0px" y="0px" viewBox="0 0 1000 1000" enable-background="new 0 0 1000 1000" xml:space="preserve">
<metadata> Svg Vector Icons : http://www.onlinewebfonts.com/icon </metadata>
<g><g transform="translate(0.000000,250.000000) scale(0.100000,-0.100000)"><path d="M4264.8,2351.4c-149-66.7-172.5-145.1-266.6-847c-35.3-266.6-66.7-490.2-70.6-494.1c-15.7-11.8-521.5-219.6-584.3-239.2c-47-11.8-231.4,98-549,337.2c-658.8,494.1-615.6,498-1254.8-149c-639.2-643.1-635.2-596-141.2-1254.8c352.9-474.5,356.8-482.3,309.8-603.9c-27.5-70.6-86.3-219.6-129.4-329.4c-47-113.7-101.9-207.8-125.5-207.8c-188.2,0-1156.8-172.5-1227.4-215.7c-113.7-78.4-137.2-258.8-121.5-988.2c15.7-780.3-23.5-737.2,780.3-850.9l599.9-82.3l133.3-313.7c70.6-168.6,121.6-329.4,109.8-356.9c-11.8-27.4-172.5-250.9-356.8-498c-462.7-619.6-470.6-572.5,188.2-1231.3c396.1-396,545.1-521.5,619.6-521.5c66.7,0,274.5,129.4,599.9,376.4l498,372.5l301.9-121.5c164.7-70.6,313.7-137.2,329.4-152.9c11.8-11.8,62.7-286.3,109.8-611.7c113.7-803.9,66.7-764.6,960.7-764.6c694.1,0,850.9,27.5,905.8,152.9c11.8,35.3,62.7,325.5,109.8,643.1l82.3,580.3l325.5,137.2l321.6,141.2l443.1-329.4C7652.8-6436.2,7743-6495,7845-6495c86.2,0,1109.7,1011.7,1137.2,1125.4c27.4,109.8-11.8,184.3-407.8,705.8l-329.4,443.1l141.2,321.5l137.2,325.5l580.3,82.3c317.6,47.1,607.8,98,643.1,109.8c125.4,54.9,152.9,211.8,152.9,905.8c0,894,39.2,847-764.6,960.7c-321.6,47.1-600,98-611.7,109.8c-15.7,15.7-82.4,164.7-152.9,329.4l-121.5,301.9l372.5,498c247,325.5,376.4,533.3,376.4,599.9c0,74.5-125.5,223.5-521.5,619.6c-658.8,658.8-611.7,650.9-1231.3,188.2c-247-184.3-470.6-345.1-498-356.8c-27.5-11.8-188.3,39.2-356.9,109.8l-313.7,133.3l-82.3,599.9c-113.7,811.7-58.8,764.6-929.3,776.4C4551.1,2402.4,4358.9,2394.5,4264.8,2351.4z M5598.1-1044.4c294.1-109.8,662.7-447,811.7-745c486.3-964.7-94.1-2101.8-1168.5-2274.3C4159-4240.3,3213.9-3201.1,3484.5-2142.4c149,584.3,549,996,1121.5,1156.8C4884.4-907.2,5300-934.7,5598.1-1044.4z"/></g></g>
</svg>