<?xml version="1.0" encoding="utf-8"?>
<!-- Generator: Adobe Illustrator 19.0.1, SVG Export Plug-In . SVG Version: 6.00 Build 0)  -->
<svg version="1.1" id="Layer_1" xmlns="http://www.w3.org/2000/svg" xmlns:xlink="http://www.w3.org/1999/xlink" x="0px" y="0px"
	 viewBox="0 0 18 14" style="enable-background:new 0 0 18 14;" xml:space="preserve">
<style type="text/css">
	.st0{fill:#A8A8A8;}
</style>
<path class="st0" d="M5.8,14c6.5,0,10.1-5.4,10.1-10.1c0-0.2,0-0.3,0-0.5c0.7-0.5,1.3-1.1,1.8-1.8c-0.6,0.3-1.3,0.5-2,0.6
	c0.7-0.4,1.3-1.1,1.6-2c-0.7,0.4-1.5,0.7-2.2,0.9c-1.3-1.4-3.6-1.5-5-0.2C9,1.8,8.6,3.1,8.9,4.3C6,4.2,3.4,2.9,1.6,0.6
	C0.6,2.3,1.1,4.3,2.7,5.4c-0.6,0-1.1-0.2-1.6-0.4c0,0,0,0,0,0c0,1.7,1.2,3.1,2.8,3.5C3.4,8.6,2.8,8.6,2.3,8.5
	c0.5,1.4,1.8,2.4,3.3,2.5c-1.3,1-2.8,1.5-4.4,1.5c-0.3,0-0.6,0-0.8-0.1C2,13.4,3.9,14,5.8,14"/>
</svg>
