<?xml version="1.0" encoding="utf-8"?>
<!-- Generator: Adobe Illustrator 19.0.1, SVG Export Plug-In . SVG Version: 6.00 Build 0)  -->
<svg version="1.1" id="Layer_1" xmlns="http://www.w3.org/2000/svg" xmlns:xlink="http://www.w3.org/1999/xlink" x="0px" y="0px"
	 viewBox="0 0 14 14" style="enable-background:new 0 0 14 14;" xml:space="preserve">
<style type="text/css">
	.st0{fill:#A8A8A8;}
</style>
<g>
	<path class="st0" d="M7,1.3c1.9,0,2.1,0,2.8,0c0.7,0,1.1,0.1,1.3,0.2c0.3,0.1,0.6,0.3,0.8,0.5c0.2,0.2,0.4,0.5,0.5,0.8
		c0.1,0.2,0.2,0.6,0.2,1.3c0,0.7,0,1,0,2.8s0,2.1,0,2.8c0,0.7-0.1,1.1-0.2,1.3c-0.1,0.3-0.3,0.6-0.5,0.8c-0.2,0.2-0.5,0.4-0.8,0.5
		c-0.2,0.1-0.6,0.2-1.3,0.2c-0.7,0-1,0-2.8,0s-2.1,0-2.8,0c-0.7,0-1.1-0.1-1.3-0.2c-0.3-0.1-0.6-0.3-0.8-0.5
		c-0.2-0.2-0.4-0.5-0.5-0.8c-0.1-0.2-0.2-0.6-0.2-1.3c0-0.7,0-1,0-2.8s0-2.1,0-2.8c0-0.7,0.1-1.1,0.2-1.3c0.1-0.3,0.3-0.6,0.5-0.8
		c0.2-0.2,0.5-0.4,0.8-0.5c0.2-0.1,0.6-0.2,1.3-0.2C4.9,1.3,5.1,1.3,7,1.3 M7,0C5.1,0,4.9,0,4.1,0c-0.7,0-1.3,0.2-1.7,0.3
		C2,0.5,1.6,0.8,1.2,1.2C0.8,1.6,0.5,2,0.4,2.4C0.2,2.9,0.1,3.4,0,4.1c0,0.7,0,1,0,2.9c0,1.9,0,2.1,0,2.9c0,0.7,0.2,1.3,0.3,1.7
		c0.2,0.5,0.4,0.9,0.8,1.2c0.4,0.4,0.8,0.6,1.2,0.8c0.4,0.2,1,0.3,1.7,0.3c0.7,0,1,0,2.9,0s2.1,0,2.9,0c0.7,0,1.3-0.2,1.7-0.3
		c0.5-0.2,0.9-0.4,1.2-0.8c0.4-0.4,0.6-0.8,0.8-1.2c0.2-0.4,0.3-1,0.3-1.7c0-0.7,0-1,0-2.9s0-2.1,0-2.9c0-0.7-0.2-1.3-0.3-1.7
		c-0.2-0.5-0.4-0.9-0.8-1.2c-0.4-0.4-0.8-0.6-1.2-0.8c-0.4-0.2-1-0.3-1.7-0.3C9.1,0,8.9,0,7,0L7,0z"/>
	<path class="st0" d="M7,3.4C5,3.4,3.4,5,3.4,7S5,10.6,7,10.6S10.6,9,10.6,7S9,3.4,7,3.4z M7,9.3c-1.3,0-2.3-1-2.3-2.3
		c0-1.3,1-2.3,2.3-2.3c1.3,0,2.3,1,2.3,2.3C9.3,8.3,8.3,9.3,7,9.3z"/>
	<circle class="st0" cx="10.7" cy="3.3" r="0.8"/>
</g>
</svg>
