<svg xmlns="http://www.w3.org/2000/svg" viewBox="0 0 26.37 21.53"><defs><style>.cls-1{fill:#1c75bb;}.cls-2{fill:#ff8b00;stroke:#fff;stroke-miterlimit:10;}.cls-3{fill:#fff;}</style></defs><title>Asset 5</title><g id="Layer_2" data-name="Layer 2"><g id="Layer_1-2" data-name="Layer 1"><polygon class="cls-1" points="20.69 10.03 20.7 0 9.19 1.66 9.18 10.02 20.69 10.03"/><polygon class="cls-1" points="8.37 1.79 0.01 3 0.01 10.01 8.36 10.02 8.37 1.79"/><polygon class="cls-1" points="0.01 10.83 0 17.92 8.35 19.17 8.36 10.83 0.01 10.83"/><polygon class="cls-1" points="9.17 19.27 20.68 21 20.69 10.85 9.18 10.84 9.17 19.27"/><path class="cls-2" d="M25.06,21H16.75a.81.81,0,0,1-.68-1.25l2.1-3.69,2.08-3.47a.73.73,0,0,1,1.32,0l2.11,3.61,2.08,3.56A.79.79,0,0,1,25.06,21Z"/><path class="cls-3" d="M20.91,18.34a.68.68,0,1,1,0,1.35.68.68,0,1,1,0-1.35Z"/><polygon class="cls-3" points="21.04 14.88 20.84 14.88 20.33 14.88 20.51 18.02 20.84 18.02 21.04 18.02 21.37 18.02 21.55 14.88 21.04 14.88"/></g></g></svg>