<svg xmlns="http://www.w3.org/2000/svg" viewBox="0 0 1000 168">
    <g fill="#000">
        <path d="M321.42,1.05c-45.78,0-68.94,33.29-74.55,46.85,0-20.08-20.09-44.15-43.41-44.15H128V166.22h70.19c28.59,0,48.66-24.42,48.66-45.77,6.34,13.21,28.77,46.5,74.55,46.5,45.22,0,82.14-37.62,82.14-83.4C403.56,37.05,366.64,1.05,321.42,1.05ZM192.61,128.43H170.18V100.92h22.43c6.5,0,11.76,6.34,11.76,13.57C204.37,122.09,199.13,128.43,192.61,128.43Zm0-61.34H170.18V40h22.43c6.5,0,11.76,6.34,11.76,13.57S199.13,67.09,192.61,67.09ZM239.28,96c-3.62-5.24-11.77-11.58-17-12.48,5.24-.36,13.75-6.34,17-10C238,77.94,238,91.7,239.28,96ZM362.66,84.17a40.83,40.83,0,1,1,0-.54C362.67,83.81,362.66,84,362.66,84.17Z" style="fill-rule:evenodd"/>
        <polygon points="118.96 166.22 74.81 166.22 74.81 103.26 46.23 103.26 46.23 166.22 1 166.22 1 3.77 46.23 3.77 46.23 64.37 74.81 64.37 74.81 3.77 118.96 3.77 118.96 166.22" style="fill-rule:evenodd"/>
        <path d="M321.42,116.12a32.48,32.48,0,0,0,0-64.95,32.48,32.48,0,1,0,0,65Z" style="fill-rule:evenodd"/>
        <path d="M639.53,61.27c-.91-39.37-28.7-60.21-62.86-60.21-18.77,0-35.61,6.29-47.12,18.48C518,7.33,501.19,1.05,482.45,1.05c-34.18,0-62,20.87-62.87,60.29a1.11,1.11,0,0,0,0,.26v89.76a14.93,14.93,0,0,0,14.93,14.93h14.1a2.48,2.48,0,0,0,2.49-2.49h0V61.6h0c.59-19.41,14.4-29.69,31.34-29.69s30.74,10.28,31.34,29.69h0v89.76a14.94,14.94,0,0,0,14.94,14.93h14.1a2.49,2.49,0,0,0,2.49-2.49h0V61.6h0c.6-19.41,14.4-29.69,31.34-29.69S607.43,42.19,608,61.6h0v89.76A14.93,14.93,0,0,0,623,166.29h14.1a2.48,2.48,0,0,0,2.49-2.49h0V61.6A1.84,1.84,0,0,0,639.53,61.27Z"/>
        <path d="M957.08,3.7H933.15a19.91,19.91,0,0,0-16.51,8.78L890.2,51.7a8.71,8.71,0,0,1-14.44,0L849.32,12.48A19.91,19.91,0,0,0,832.81,3.7H808.89A1.87,1.87,0,0,0,807,5.56a1.82,1.82,0,0,0,.32,1l47.24,70a15,15,0,0,1,0,16.71l-47.24,70a1.86,1.86,0,0,0,1.55,2.9h23.92a19.88,19.88,0,0,0,16.51-8.77l26.44-39.22a8.7,8.7,0,0,1,14.44,0l26.44,39.22a19.88,19.88,0,0,0,16.51,8.77h23.93a1.86,1.86,0,0,0,1.54-2.9l-47.24-70a15,15,0,0,1,0-16.71l47.24-70a1.86,1.86,0,0,0-1.54-2.9Z"/>
        <path d="M796.34,3.7h-14.1a15,15,0,0,0-14.6,11.78C755.07,5.94,739.37,1.05,722.35,1.05c-41.3,0-74.78,28.73-74.78,83S681.05,167,722.35,167c16.91,0,32.5-4.81,45-14.23a15,15,0,0,0,14.86,13.57h14.1a2.48,2.48,0,0,0,2.49-2.49h0V6.19A2.48,2.48,0,0,0,796.34,3.7Zm-74,132.38c-24.65,0-44.65-18-44.65-52.08s20-52.08,44.65-52.08S767,50,767,84,747,136.08,722.35,136.08Z"/>
        <path d="M978.79,6.83H974.1V21h-3.44V6.83H966V3.54h12.81Z"/>
        <path d="M999,21h-3.42V9.67l-4.89,8.08h-.4L985.4,9.69V21H982V3.53h3.54l5,8.23,5-8.23H999V21Z"/>
    </g>
</svg>