<svg width="1863" height="392" viewBox="0 0 1863 392" fill="none" xmlns="http://www.w3.org/2000/svg">
<path d="M114.988 392C91.3216 392 70.9883 387.333 53.9883 378C36.9883 368.333 23.8216 355.333 14.4883 339C5.48828 322.333 0.988282 303.333 0.988282 282C0.988282 261.667 6.15495 243.167 16.4883 226.5C26.8216 209.833 40.655 196.5 57.9883 186.5C75.3216 176.5 94.655 171.5 115.988 171.5C143.322 171.5 165.988 179.5 183.988 195.5C201.988 211.5 214.155 233.5 220.488 261.5L49.9883 321.5L38.9883 294L178.988 243L168.988 249.5C164.988 238.5 158.322 229 148.988 221C139.655 212.667 127.488 208.5 112.488 208.5C99.8216 208.5 88.4883 211.667 78.4883 218C68.4883 224 60.655 232.333 54.9883 243C49.3216 253.667 46.4883 265.833 46.4883 279.5C46.4883 293.833 49.4883 306.5 55.4883 317.5C61.4883 328.167 69.655 336.667 79.9883 343C90.655 349 102.655 352 115.988 352C124.988 352 133.655 350.333 141.988 347C150.655 343.667 158.655 339.333 165.988 334L187.488 368.5C177.155 375.5 165.488 381.167 152.488 385.5C139.822 389.833 127.322 392 114.988 392ZM325.895 257L375.395 180H422.395L342.895 291L325.895 257ZM430.395 387H374.395L216.895 180H274.395L430.395 387ZM320.895 310L266.395 387H219.395L298.395 279L320.895 310ZM547.898 392C524.232 392 503.898 387.333 486.898 378C469.898 368.333 456.732 355.333 447.398 339C438.398 322.333 433.898 303.333 433.898 282C433.898 261.667 439.065 243.167 449.398 226.5C459.732 209.833 473.565 196.5 490.898 186.5C508.232 176.5 527.565 171.5 548.898 171.5C576.232 171.5 598.898 179.5 616.898 195.5C634.898 211.5 647.065 233.5 653.398 261.5L482.898 321.5L471.898 294L611.898 243L601.898 249.5C597.898 238.5 591.232 229 581.898 221C572.565 212.667 560.398 208.5 545.398 208.5C532.732 208.5 521.398 211.667 511.398 218C501.398 224 493.565 232.333 487.898 243C482.232 253.667 479.398 265.833 479.398 279.5C479.398 293.833 482.398 306.5 488.398 317.5C494.398 328.167 502.565 336.667 512.898 343C523.565 349 535.565 352 548.898 352C557.898 352 566.565 350.333 574.898 347C583.565 343.667 591.565 339.333 598.898 334L620.398 368.5C610.065 375.5 598.398 381.167 585.398 385.5C572.732 389.833 560.232 392 547.898 392ZM854.664 368C845.331 375.333 834.164 381.167 821.164 385.5C808.164 389.833 795.164 392 782.164 392C759.497 392 739.664 387.5 722.664 378.5C705.664 369.5 692.331 357 682.664 341C673.331 324.667 668.664 305.5 668.664 283.5C668.664 261.5 673.664 242.333 683.664 226C693.997 209.667 707.331 197.167 723.664 188.5C740.331 179.5 758.164 175 777.164 175C793.831 175 808.664 177.333 821.664 182C834.997 186.667 846.331 193 855.664 201L832.664 231C826.664 226.333 819.331 222.167 810.664 218.5C801.997 214.833 792.164 213 781.164 213C769.164 213 757.997 216.167 747.664 222.5C737.664 228.5 729.664 236.833 723.664 247.5C717.997 258.167 715.164 270.167 715.164 283.5C715.164 296.167 718.164 308 724.164 319C730.164 329.667 738.497 338.167 749.164 344.5C759.831 350.5 771.997 353.5 785.664 353.5C794.664 353.5 802.831 352.167 810.164 349.5C817.831 346.833 824.664 343.167 830.664 338.5L854.664 368ZM866.191 360.5C866.191 353.167 868.858 347 874.191 342C879.858 336.667 886.025 334 892.691 334C898.691 334 904.358 336.667 909.691 342C915.358 347 918.191 353.167 918.191 360.5C918.191 368.5 915.358 375 909.691 380C904.358 384.667 898.691 387 892.691 387C886.025 387 879.858 384.667 874.191 380C868.858 375 866.191 368.5 866.191 360.5ZM1032.68 392C1013.68 392 996.342 387.5 980.676 378.5C965.342 369.167 953.176 356.167 944.176 339.5C935.176 322.5 930.676 303 930.676 281C930.676 258 935.342 238.333 944.676 222C954.342 205.667 967.342 193.167 983.676 184.5C1000.01 175.833 1018.34 171.5 1038.68 171.5C1055.01 171.5 1070.51 175 1085.18 182C1100.18 189 1111.84 198.667 1120.18 211L1118.18 227.5V-2.43187e-05H1164.18V387H1117.68V335.5L1122.68 348.5C1113.01 361.167 1100.51 371.667 1085.18 380C1069.84 388 1052.34 392 1032.68 392ZM1047.18 352.5C1059.51 352.5 1070.51 350.333 1080.18 346C1089.84 341.333 1097.84 335 1104.18 327C1110.51 319 1115.01 309.5 1117.68 298.5V259.5C1115.01 249.5 1110.18 240.833 1103.18 233.5C1096.51 225.833 1088.34 219.833 1078.68 215.5C1069.34 210.833 1058.84 208.5 1047.18 208.5C1034.51 208.5 1022.84 211.667 1012.18 218C1001.84 224 993.509 232.333 987.176 243C980.842 253.667 977.676 266 977.676 280C977.676 293.667 980.842 306 987.176 317C993.509 327.667 1002.01 336.333 1012.68 343C1023.34 349.333 1034.84 352.5 1047.18 352.5ZM1306.06 392C1286.73 392 1269.06 387.833 1253.06 379.5C1237.4 371.167 1224.9 359 1215.56 343C1206.56 326.667 1202.06 306.833 1202.06 283.5C1202.06 260.5 1206.9 240.667 1216.56 224C1226.23 207 1239.06 194 1255.06 185C1271.4 176 1289.23 171.5 1308.56 171.5C1327.9 171.5 1344.23 176 1357.56 185C1370.9 193.667 1381.06 204 1388.06 216L1385.06 224L1389.56 180H1432.56V387H1386.06V333L1391.06 345C1389.73 348.333 1386.73 352.667 1382.06 358C1377.73 363 1371.73 368.167 1364.06 373.5C1356.73 378.833 1348.23 383.333 1338.56 387C1328.9 390.333 1318.06 392 1306.06 392ZM1318.56 353.5C1330.23 353.5 1340.73 351.333 1350.06 347C1359.4 342.667 1367.06 336.667 1373.06 329C1379.4 321 1383.73 311.5 1386.06 300.5V260C1383.4 250 1378.73 241.333 1372.06 234C1365.4 226.333 1357.4 220.5 1348.06 216.5C1338.73 212.167 1328.4 210 1317.06 210C1304.73 210 1293.4 213 1283.06 219C1272.73 225 1264.4 233.333 1258.06 244C1252.06 254.667 1249.06 267.167 1249.06 281.5C1249.06 294.833 1252.23 307 1258.56 318C1264.9 329 1273.4 337.667 1284.06 344C1294.73 350.333 1306.23 353.5 1318.56 353.5ZM1546.03 391C1531.36 391 1517.03 388.5 1503.03 383.5C1489.36 378.167 1478.03 370.333 1469.03 360L1488.53 333C1497.2 341.333 1506.03 347.667 1515.03 352C1524.36 356 1533.53 358 1542.53 358C1549.2 358 1555.36 357.167 1561.03 355.5C1566.7 353.833 1571.2 351.167 1574.53 347.5C1578.2 343.5 1580.03 338.167 1580.03 331.5C1580.03 324.167 1577.53 318.333 1572.53 314C1567.86 309.667 1561.7 306.167 1554.03 303.5C1546.7 300.833 1538.86 298.333 1530.53 296C1513.53 290.333 1500.53 282.5 1491.53 272.5C1482.53 262.5 1478.03 250.333 1478.03 236C1478.03 225 1480.7 214.833 1486.03 205.5C1491.7 195.833 1499.86 188 1510.53 182C1521.53 176 1535.03 173 1551.03 173C1565.36 173 1578.2 174.833 1589.53 178.5C1600.86 181.833 1611.53 187.5 1621.53 195.5L1603.03 224.5C1597.03 218.167 1589.86 213.5 1581.53 210.5C1573.2 207.5 1565.7 205.833 1559.03 205.5C1553.36 205.167 1547.86 206 1542.53 208C1537.53 210 1533.36 212.833 1530.03 216.5C1526.7 220.167 1525.03 224.5 1525.03 229.5C1525.03 236.5 1527.36 242.167 1532.03 246.5C1536.7 250.833 1542.7 254.333 1550.03 257C1557.7 259.333 1565.2 261.833 1572.53 264.5C1582.86 267.5 1592.03 271.5 1600.03 276.5C1608.03 281.5 1614.36 287.667 1619.03 295C1624.03 302.333 1626.53 311.5 1626.53 322.5C1626.53 334.833 1623.53 346.333 1617.53 357C1611.86 367.333 1603.03 375.667 1591.03 382C1579.36 388 1564.36 391 1546.03 391ZM1666.64 387V-2.43187e-05H1712.14V228L1711.14 219.5C1718.14 205.833 1728.81 194.5 1743.14 185.5C1757.81 176.5 1774.98 172 1794.64 172C1814.31 172 1830.31 177.833 1842.64 189.5C1855.31 200.833 1861.81 215.667 1862.14 234V387H1815.14V250.5C1814.81 239.167 1811.48 230 1805.14 223C1799.14 215.667 1789.64 212 1776.64 212C1764.64 212 1753.81 215.5 1744.14 222.5C1734.48 229.167 1726.81 238.333 1721.14 250C1715.81 261.667 1713.14 275 1713.14 290V387H1666.64Z" fill="white"/>
</svg>
