<svg width="1863" height="392" viewBox="0 0 1863 392" fill="none" xmlns="http://www.w3.org/2000/svg">
<path d="M 115 392 C 91.3 392 71 387.3 54 378 C 37 368.3 23.8 355.3 14.5 339 C 5.5 322.3 1 303.3 1 282 C 1 261.7 6.2 243.2 16.5 226.5 C 26.8 209.8 40.7 196.5 58 186.5 C 75.3 176.5 94.7 171.5 116 171.5 C 143.3 171.5 166 179.5 184 195.5 C 202 211.5 214.2 233.5 220.5 261.5 L 50 321.5 L 39 294 L 179 243 L 169 249.5 C 165 238.5 158.3 229 149 221 C 139.7 212.7 127.5 208.5 112.5 208.5 C 99.8 208.5 88.5 211.7 78.5 218 C 68.5 224 60.7 232.3 55 243 C 49.3 253.7 46.5 265.8 46.5 279.5 C 46.5 293.8 49.5 306.5 55.5 317.5 C 61.5 328.2 69.7 336.7 80 343 C 90.7 349 102.7 352 116 352 C 125 352 133.7 350.3 142 347 C 150.7 343.7 158.7 339.3 166 334 L 187.5 368.5 C 177.2 375.5 165.5 381.2 152.5 385.5 C 139.8 389.8 127.3 392 115 392 Z M 325.9 257 L 375.4 180 H 422.4 L 342.9 291 L 325.9 257 Z M 430.4 387 H 374.4 L 216.9 180 H 274.4 L 430.4 387 Z M 320.9 310 L 266.4 387 H 219.4 L 298.4 279 L 320.9 310 Z M 547.9 392 C 524.2 392 503.9 387.3 486.9 378 C 469.9 368.3 456.7 355.3 447.4 339 C 438.4 322.3 433.9 303.3 433.9 282 C 433.9 261.7 439.1 243.2 449.4 226.5 C 459.7 209.8 473.6 196.5 490.9 186.5 C 508.2 176.5 527.6 171.5 548.9 171.5 C 576.2 171.5 598.9 179.5 616.9 195.5 C 634.9 211.5 647.1 233.5 653.4 261.5 L 482.9 321.5 L 471.9 294 L 611.9 243 L 601.9 249.5 C 597.9 238.5 591.2 229 581.9 221 C 572.6 212.7 560.4 208.5 545.4 208.5 C 532.7 208.5 521.4 211.7 511.4 218 C 501.4 224 493.6 232.3 487.9 243 C 482.2 253.7 479.4 265.8 479.4 279.5 C 479.4 293.8 482.4 306.5 488.4 317.5 C 494.4 328.2 502.6 336.7 512.9 343 C 523.6 349 535.6 352 548.9 352 C 557.9 352 566.6 350.3 574.9 347 C 583.6 343.7 591.6 339.3 598.9 334 L 620.4 368.5 C 610.1 375.5 598.4 381.2 585.4 385.5 C 572.7 389.8 560.2 392 547.9 392 Z M 854.7 368 C 845.3 375.3 834.2 381.2 821.2 385.5 C 808.2 389.8 795.2 392 782.2 392 C 759.5 392 739.7 387.5 722.7 378.5 C 705.7 369.5 692.3 357 682.7 341 C 673.3 324.7 668.7 305.5 668.7 283.5 C 668.7 261.5 673.7 242.3 683.7 226 C 694 209.7 707.3 197.2 723.7 188.5 C 740.3 179.5 758.2 175 777.2 175 C 793.8 175 808.7 177.3 821.7 182 C 835 186.7 846.3 193 855.7 201 L 832.7 231 C 826.7 226.3 819.3 222.2 810.7 218.5 C 802 214.8 792.2 213 781.2 213 C 769.2 213 758 216.2 747.7 222.5 C 737.7 228.5 729.7 236.8 723.7 247.5 C 718 258.2 715.2 270.2 715.2 283.5 C 715.2 296.2 718.2 308 724.2 319 C 730.2 329.7 738.5 338.2 749.2 344.5 C 759.8 350.5 772 353.5 785.7 353.5 C 794.7 353.5 802.8 352.2 810.2 349.5 C 817.8 346.8 824.7 343.2 830.7 338.5 L 854.7 368 Z M 866.2 360.5 C 866.2 353.2 868.9 347 874.2 342 C 879.9 336.7 886 334 892.7 334 C 898.7 334 904.4 336.7 909.7 342 C 915.4 347 918.2 353.2 918.2 360.5 C 918.2 368.5 915.4 375 909.7 380 C 904.4 384.7 898.7 387 892.7 387 C 886 387 879.9 384.7 874.2 380 C 868.9 375 866.2 368.5 866.2 360.5 Z M 1032.7 392 C 1013.7 392 996.3 387.5 980.7 378.5 C 965.3 369.2 953.2 356.2 944.2 339.5 C 935.2 322.5 930.7 303 930.7 281 C 930.7 258 935.3 238.3 944.7 222 C 954.3 205.7 967.3 193.2 983.7 184.5 C 1000 175.8 1018.3 171.5 1038.7 171.5 C 1055 171.5 1070.5 175 1085.2 182 C 1100.2 189 1111.8 198.7 1120.2 211 L 1118.2 227.5 V 0 H 1164.2 V 387 H 1117.7 V 335.5 L 1122.7 348.5 C 1113 361.2 1100.5 371.7 1085.2 380 C 1069.8 388 1052.3 392 1032.7 392 Z M 1047.2 352.5 C 1059.5 352.5 1070.5 350.3 1080.2 346 C 1089.8 341.3 1097.8 335 1104.2 327 C 1110.5 319 1115 309.5 1117.7 298.5 V 259.5 C 1115 249.5 1110.2 240.8 1103.2 233.5 C 1096.5 225.8 1088.3 219.8 1078.7 215.5 C 1069.3 210.8 1058.8 208.5 1047.2 208.5 C 1034.5 208.5 1022.8 211.7 1012.2 218 C 1001.8 224 993.5 232.3 987.2 243 C 980.8 253.7 977.7 266 977.7 280 C 977.7 293.7 980.8 306 987.2 317 C 993.5 327.7 1002 336.3 1012.7 343 C 1023.3 349.3 1034.8 352.5 1047.2 352.5 Z M 1306.1 392 C 1286.7 392 1269.1 387.8 1253.1 379.5 C 1237.4 371.2 1224.9 359 1215.6 343 C 1206.6 326.7 1202.1 306.8 1202.1 283.5 C 1202.1 260.5 1206.9 240.7 1216.6 224 C 1226.2 207 1239.1 194 1255.1 185 C 1271.4 176 1289.2 171.5 1308.6 171.5 C 1327.9 171.5 1344.2 176 1357.6 185 C 1370.9 193.7 1381.1 204 1388.1 216 L 1385.1 224 L 1389.6 180 H 1432.6 V 387 H 1386.1 V 333 L 1391.1 345 C 1389.7 348.3 1386.7 352.7 1382.1 358 C 1377.7 363 1371.7 368.2 1364.1 373.5 C 1356.7 378.8 1348.2 383.3 1338.6 387 C 1328.9 390.3 1318.1 392 1306.1 392 Z M 1318.6 353.5 C 1330.2 353.5 1340.7 351.3 1350.1 347 C 1359.4 342.7 1367.1 336.7 1373.1 329 C 1379.4 321 1383.7 311.5 1386.1 300.5 V 260 C 1383.4 250 1378.7 241.3 1372.1 234 C 1365.4 226.3 1357.4 220.5 1348.1 216.5 C 1338.7 212.2 1328.4 210 1317.1 210 C 1304.7 210 1293.4 213 1283.1 219 C 1272.7 225 1264.4 233.3 1258.1 244 C 1252.1 254.7 1249.1 267.2 1249.1 281.5 C 1249.1 294.8 1252.2 307 1258.6 318 C 1264.9 329 1273.4 337.7 1284.1 344 C 1294.7 350.3 1306.2 353.5 1318.6 353.5 Z M 1546 391 C 1531.4 391 1517 388.5 1503 383.5 C 1489.4 378.2 1478 370.3 1469 360 L 1488.5 333 C 1497.2 341.3 1506 347.7 1515 352 C 1524.4 356 1533.5 358 1542.5 358 C 1549.2 358 1555.4 357.2 1561 355.5 C 1566.7 353.8 1571.2 351.2 1574.5 347.5 C 1578.2 343.5 1580 338.2 1580 331.5 C 1580 324.2 1577.5 318.3 1572.5 314 C 1567.9 309.7 1561.7 306.2 1554 303.5 C 1546.7 300.8 1538.9 298.3 1530.5 296 C 1513.5 290.3 1500.5 282.5 1491.5 272.5 C 1482.5 262.5 1478 250.3 1478 236 C 1478 225 1480.7 214.8 1486 205.5 C 1491.7 195.8 1499.9 188 1510.5 182 C 1521.5 176 1535 173 1551 173 C 1565.4 173 1578.2 174.8 1589.5 178.5 C 1600.9 181.8 1611.5 187.5 1621.5 195.5 L 1603 224.5 C 1597 218.2 1589.9 213.5 1581.5 210.5 C 1573.2 207.5 1565.7 205.8 1559 205.5 C 1553.4 205.2 1547.9 206 1542.5 208 C 1537.5 210 1533.4 212.8 1530 216.5 C 1526.7 220.2 1525 224.5 1525 229.5 C 1525 236.5 1527.4 242.2 1532 246.5 C 1536.7 250.8 1542.7 254.3 1550 257 C 1557.7 259.3 1565.2 261.8 1572.5 264.5 C 1582.9 267.5 1592 271.5 1600 276.5 C 1608 281.5 1614.4 287.7 1619 295 C 1624 302.3 1626.5 311.5 1626.5 322.5 C 1626.5 334.8 1623.5 346.3 1617.5 357 C 1611.9 367.3 1603 375.7 1591 382 C 1579.4 388 1564.4 391 1546 391 Z M 1666.6 387 V 0 H 1712.1 V 228 L 1711.1 219.5 C 1718.1 205.8 1728.8 194.5 1743.1 185.5 C 1757.8 176.5 1775 172 1794.6 172 C 1814.3 172 1830.3 177.8 1842.6 189.5 C 1855.3 200.8 1861.8 215.7 1862.1 234 V 387 H 1815.1 V 250.5 C 1814.8 239.2 1811.5 230 1805.1 223 C 1799.1 215.7 1789.6 212 1776.6 212 C 1764.6 212 1753.8 215.5 1744.1 222.5 C 1734.5 229.2 1726.8 238.3 1721.1 250 C 1715.8 261.7 1713.1 275 1713.1 290 V 387 H 1666.6 Z" fill="white"/>
</svg>
