<?xml version="1.0" encoding="utf-8"?>
<!-- Generator: Adobe Illustrator 25.0.1, SVG Export Plug-In . SVG Version: 6.00 Build 0)  -->
<svg version="1.1" id="Layer_1" xmlns="http://www.w3.org/2000/svg" xmlns:xlink="http://www.w3.org/1999/xlink" x="0px" y="0px"
	 width="1944px" height="2880px" viewBox="0 0 1944 2880" enable-background="new 0 0 1944 2880" xml:space="preserve">
<linearGradient id="SVGID_1_" gradientUnits="userSpaceOnUse" x1="973.0008" y1="2880" x2="973.0008" y2="-9.094947e-13">
	<stop  offset="0" style="stop-color:#E84649"/>
	<stop  offset="7.042885e-03" style="stop-color:#E84848"/>
	<stop  offset="0.1411" style="stop-color:#EC6C3E"/>
	<stop  offset="0.2821" style="stop-color:#F08A35"/>
	<stop  offset="0.4308" style="stop-color:#F3A12E"/>
	<stop  offset="0.5902" style="stop-color:#F5B12A"/>
	<stop  offset="0.7677" style="stop-color:#F6BB27"/>
	<stop  offset="1" style="stop-color:#F6BE26"/>
</linearGradient>
<rect x="1" fill="url(#SVGID_1_)" width="1944" height="2880"/>
<linearGradient id="SVGID_2_" gradientUnits="userSpaceOnUse" x1="1083.3573" y1="94.5751" x2="-229.7939" y2="1465.6586" gradientTransform="matrix(0.7222 -0.6917 0.6917 0.7222 123.5335 1171.7982)">
	<stop  offset="0" style="stop-color:#E84649"/>
	<stop  offset="1" style="stop-color:#F6BE26"/>
</linearGradient>
<circle fill="url(#SVGID_2_)" cx="971.3" cy="1440" r="949.2"/>
<linearGradient id="SVGID_3_" gradientUnits="userSpaceOnUse" x1="970.5037" y1="2202.3301" x2="970.5037" y2="500.903">
	<stop  offset="0" style="stop-color:#E84649"/>
	<stop  offset="1" style="stop-color:#F6BE26"/>
</linearGradient>
<polygon fill="url(#SVGID_3_)" points="970.5,500.9 1191.6,1137.1 1865,1150.8 1328.3,1557.7 1523.3,2202.3 970.5,1817.6 
	417.7,2202.3 612.7,1557.7 76,1150.8 749.4,1137.1 "/>
<g>
	<linearGradient id="SVGID_4_" gradientUnits="userSpaceOnUse" x1="225.4633" y1="1328.7651" x2="225.4633" y2="1228.5677">
		<stop  offset="0" style="stop-color:#E5C500"/>
		<stop  offset="0.1465" style="stop-color:#E5BF03"/>
		<stop  offset="0.3383" style="stop-color:#E6AF0C"/>
		<stop  offset="0.5551" style="stop-color:#E6941B"/>
		<stop  offset="0.7885" style="stop-color:#E76E30"/>
		<stop  offset="1" style="stop-color:#E84646"/>
	</linearGradient>
	<linearGradient id="SVGID_5_" gradientUnits="userSpaceOnUse" x1="225.4633" y1="1225.5677" x2="225.4633" y2="1331.7651">
		<stop  offset="0" style="stop-color:#E5C500"/>
		<stop  offset="0.1465" style="stop-color:#E5BF03"/>
		<stop  offset="0.3383" style="stop-color:#E6AF0C"/>
		<stop  offset="0.5551" style="stop-color:#E6941B"/>
		<stop  offset="0.7885" style="stop-color:#E76E30"/>
		<stop  offset="1" style="stop-color:#E84646"/>
	</linearGradient>
	<path fill="url(#SVGID_4_)" stroke="url(#SVGID_5_)" stroke-width="6" stroke-miterlimit="10" d="M186.8,1228.6h77.4v19.9h-28.8
		v80.3h-20.8v-80.3h-27.8V1228.6z"/>
	<linearGradient id="SVGID_6_" gradientUnits="userSpaceOnUse" x1="304.8799" y1="1328.7651" x2="304.8799" y2="1224.4176">
		<stop  offset="0" style="stop-color:#E5C500"/>
		<stop  offset="0.1465" style="stop-color:#E5BF03"/>
		<stop  offset="0.3383" style="stop-color:#E6AF0C"/>
		<stop  offset="0.5551" style="stop-color:#E6941B"/>
		<stop  offset="0.7885" style="stop-color:#E76E30"/>
		<stop  offset="1" style="stop-color:#E84646"/>
	</linearGradient>
	<linearGradient id="SVGID_7_" gradientUnits="userSpaceOnUse" x1="304.8784" y1="1219.5958" x2="304.8784" y2="1331.7651">
		<stop  offset="0" style="stop-color:#E5C500"/>
		<stop  offset="0.1465" style="stop-color:#E5BF03"/>
		<stop  offset="0.3383" style="stop-color:#E6AF0C"/>
		<stop  offset="0.5551" style="stop-color:#E6941B"/>
		<stop  offset="0.7885" style="stop-color:#E76E30"/>
		<stop  offset="1" style="stop-color:#E84646"/>
	</linearGradient>
	<path fill="url(#SVGID_6_)" stroke="url(#SVGID_7_)" stroke-width="6" stroke-miterlimit="10" d="M292.1,1224.4v33.5
		c6.3-4.5,13-6.6,20-6.2c7,0.4,13,3.1,17.9,8.2c4.9,5,7.4,13,7.4,23.9v45.1h-19.4v-45.7c-0.1-3.2-1.3-6.1-3.7-8.7
		c-2.4-2.7-5.5-4-9.3-4c-3.9,0-7,1.2-9.3,3.7c-2.4,2.5-3.6,5.4-3.6,8.7v45.9h-19.7l-0.1-94.6L292.1,1224.4z"/>
	<linearGradient id="SVGID_8_" gradientUnits="userSpaceOnUse" x1="376.9063" y1="1329.818" x2="376.9063" y2="1251.3938">
		<stop  offset="0" style="stop-color:#E5C500"/>
		<stop  offset="0.1465" style="stop-color:#E5BF03"/>
		<stop  offset="0.3383" style="stop-color:#E6AF0C"/>
		<stop  offset="0.5551" style="stop-color:#E6941B"/>
		<stop  offset="0.7885" style="stop-color:#E76E30"/>
		<stop  offset="1" style="stop-color:#E84646"/>
	</linearGradient>
	<linearGradient id="SVGID_9_" gradientUnits="userSpaceOnUse" x1="376.9063" y1="1248.3938" x2="376.9063" y2="1332.818">
		<stop  offset="0" style="stop-color:#E5C500"/>
		<stop  offset="0.1465" style="stop-color:#E5BF03"/>
		<stop  offset="0.3383" style="stop-color:#E6AF0C"/>
		<stop  offset="0.5551" style="stop-color:#E6941B"/>
		<stop  offset="0.7885" style="stop-color:#E76E30"/>
		<stop  offset="1" style="stop-color:#E84646"/>
	</linearGradient>
	<path fill="url(#SVGID_8_)" stroke="url(#SVGID_9_)" stroke-width="6" stroke-miterlimit="10" d="M407,1317.8
		c-8.7,8.3-18.3,12.3-28.9,12c-10.6-0.3-18.9-4-24.9-11c-6-7-9-16.6-8.9-28.6c0.1-12.1,3.4-21.5,9.8-28.5
		c6.4-6.9,14.2-10.4,23.3-10.4c9.1,0,16.9,3.7,23.6,11c6.6,7.3,9.4,18.8,8.4,34.4H364c0.2,2.6,1.3,5.4,3.4,8.6
		c2.1,3.2,5.9,4.9,11.6,5.3c5.6,0.4,10.2-1.5,13.8-5.6L407,1317.8z M364.6,1281.9h25.5c-0.6-3.6-1.8-6.6-3.7-9
		c-1.9-2.5-4.9-3.8-9-3.9c-4.2-0.1-7.2,1.1-9,3.7C366.4,1275.3,365.2,1278.4,364.6,1281.9z"/>
	<linearGradient id="SVGID_10_" gradientUnits="userSpaceOnUse" x1="603.7477" y1="1427.5033" x2="603.7477" y2="1009.9799">
		<stop  offset="0" style="stop-color:#E5C500"/>
		<stop  offset="0.1465" style="stop-color:#E5BF03"/>
		<stop  offset="0.3383" style="stop-color:#E6AF0C"/>
		<stop  offset="0.5551" style="stop-color:#E6941B"/>
		<stop  offset="0.7885" style="stop-color:#E76E30"/>
		<stop  offset="1" style="stop-color:#E84646"/>
	</linearGradient>
	<linearGradient id="SVGID_11_" gradientUnits="userSpaceOnUse" x1="603.7477" y1="1002.9799" x2="603.7477" y2="1434.5033">
		<stop  offset="0" style="stop-color:#E5C500"/>
		<stop  offset="0.1465" style="stop-color:#E5BF03"/>
		<stop  offset="0.3383" style="stop-color:#E6AF0C"/>
		<stop  offset="0.5551" style="stop-color:#E6941B"/>
		<stop  offset="0.7885" style="stop-color:#E76E30"/>
		<stop  offset="1" style="stop-color:#E84646"/>
	</linearGradient>
	<path fill="url(#SVGID_10_)" stroke="url(#SVGID_11_)" stroke-width="14" stroke-miterlimit="10" d="M437.1,1010h125.7
		c54.3-0.8,102.3,13,143.9,41.4c41.6,28.4,62.8,82.3,63.6,161.8c0.8,79.5-21.2,135-66.1,166.7c-44.9,31.7-87.9,47.6-129.1,47.6h-138
		V1010z M519.6,1092.8V1346h66.7c21.4,0,43.2-10.1,65.5-30.3c22.2-20.2,33.8-52.9,34.6-98.2c0.8-45.3-10.1-77.4-32.7-96.3
		c-22.6-18.9-42.5-28.4-59.6-28.4H519.6z"/>
	<linearGradient id="SVGID_12_" gradientUnits="userSpaceOnUse" x1="878.4307" y1="1421.8752" x2="878.4307" y2="1101.33">
		<stop  offset="0" style="stop-color:#E5C500"/>
		<stop  offset="0.1465" style="stop-color:#E5BF03"/>
		<stop  offset="0.3383" style="stop-color:#E6AF0C"/>
		<stop  offset="0.5551" style="stop-color:#E6941B"/>
		<stop  offset="0.7885" style="stop-color:#E76E30"/>
		<stop  offset="1" style="stop-color:#E84646"/>
	</linearGradient>
	<linearGradient id="SVGID_13_" gradientUnits="userSpaceOnUse" x1="878.9359" y1="1094.33" x2="878.9359" y2="1428.8752">
		<stop  offset="0" style="stop-color:#E5C500"/>
		<stop  offset="0.1465" style="stop-color:#E5BF03"/>
		<stop  offset="0.3383" style="stop-color:#E6AF0C"/>
		<stop  offset="0.5551" style="stop-color:#E6941B"/>
		<stop  offset="0.7885" style="stop-color:#E76E30"/>
		<stop  offset="1" style="stop-color:#E84646"/>
	</linearGradient>
	<path fill="url(#SVGID_12_)" stroke="url(#SVGID_13_)" stroke-width="14" stroke-miterlimit="10" d="M776.5,1421.9v-313.7h81.5v21
		c17.3-18.1,37.7-27.4,61.1-27.8c23.5-0.4,43.8,6.4,61.1,20.4l-23.5,81.5c-17.3-13.2-33.8-19.3-49.4-18.5
		c-15.6,0.8-27.8,5.1-36.4,13c-8.6,7.8-13,19.6-13,35.2v189H776.5z"/>
	<linearGradient id="SVGID_14_" gradientUnits="userSpaceOnUse" x1="1022.527" y1="1421.8752" x2="1022.527" y2="989.5641">
		<stop  offset="0" style="stop-color:#E5C500"/>
		<stop  offset="0.1465" style="stop-color:#E5BF03"/>
		<stop  offset="0.3383" style="stop-color:#E6AF0C"/>
		<stop  offset="0.5551" style="stop-color:#E6941B"/>
		<stop  offset="0.7885" style="stop-color:#E76E30"/>
		<stop  offset="1" style="stop-color:#E84646"/>
	</linearGradient>
	<linearGradient id="SVGID_15_" gradientUnits="userSpaceOnUse" x1="1022.527" y1="982.5641" x2="1022.527" y2="1428.8752">
		<stop  offset="0" style="stop-color:#E5C500"/>
		<stop  offset="0.1465" style="stop-color:#E5BF03"/>
		<stop  offset="0.3383" style="stop-color:#E6AF0C"/>
		<stop  offset="0.5551" style="stop-color:#E6941B"/>
		<stop  offset="0.7885" style="stop-color:#E76E30"/>
		<stop  offset="1" style="stop-color:#E84646"/>
	</linearGradient>
	<path fill="url(#SVGID_14_)" stroke="url(#SVGID_15_)" stroke-width="14" stroke-miterlimit="10" d="M1023.8,989.6
		c14,0,25.1,4.9,33.3,14.8c8.2,9.9,12.4,21,12.4,33.3c0,12.4-3.9,23.3-11.7,32.7c-7.8,9.5-19.1,14.2-34,14.2s-26.6-4.9-35.2-14.8
		c-8.6-9.9-13-20.8-13-32.7c0-11.9,4.3-22.9,13-32.7S1008.9,989.6,1023.8,989.6z M981.8,1108.1h81.5v313.7h-81.5V1108.1z"/>
	<linearGradient id="SVGID_16_" gradientUnits="userSpaceOnUse" x1="1224.1698" y1="1421.8752" x2="1224.1698" y2="1108.1409">
		<stop  offset="0" style="stop-color:#E5C500"/>
		<stop  offset="0.1465" style="stop-color:#E5BF03"/>
		<stop  offset="0.3383" style="stop-color:#E6AF0C"/>
		<stop  offset="0.5551" style="stop-color:#E6941B"/>
		<stop  offset="0.7885" style="stop-color:#E76E30"/>
		<stop  offset="1" style="stop-color:#E84646"/>
	</linearGradient>
	<linearGradient id="SVGID_17_" gradientUnits="userSpaceOnUse" x1="1224.179" y1="1101.1409" x2="1224.179" y2="1428.8752">
		<stop  offset="0" style="stop-color:#E5C500"/>
		<stop  offset="0.1465" style="stop-color:#E5BF03"/>
		<stop  offset="0.3383" style="stop-color:#E6AF0C"/>
		<stop  offset="0.5551" style="stop-color:#E6941B"/>
		<stop  offset="0.7885" style="stop-color:#E76E30"/>
		<stop  offset="1" style="stop-color:#E84646"/>
	</linearGradient>
	<path fill="url(#SVGID_16_)" stroke="url(#SVGID_17_)" stroke-width="14" stroke-miterlimit="10" d="M1069.5,1108.1h93.9
		l62.4,203.8l63-203.8h90.2l-112.4,313.7h-85.2L1069.5,1108.1z"/>
	<linearGradient id="SVGID_18_" gradientUnits="userSpaceOnUse" x1="1482.0693" y1="1416.5397" x2="1482.0693" y2="1089.7721">
		<stop  offset="0" style="stop-color:#E5C500"/>
		<stop  offset="0.1465" style="stop-color:#E5BF03"/>
		<stop  offset="0.3383" style="stop-color:#E6AF0C"/>
		<stop  offset="0.5551" style="stop-color:#E6941B"/>
		<stop  offset="0.7885" style="stop-color:#E76E30"/>
		<stop  offset="1" style="stop-color:#E84646"/>
	</linearGradient>
	<linearGradient id="SVGID_19_" gradientUnits="userSpaceOnUse" x1="1482.0693" y1="1082.7721" x2="1482.0693" y2="1423.5397">
		<stop  offset="0" style="stop-color:#E5C500"/>
		<stop  offset="0.1465" style="stop-color:#E5BF03"/>
		<stop  offset="0.3383" style="stop-color:#E6AF0C"/>
		<stop  offset="0.5551" style="stop-color:#E6941B"/>
		<stop  offset="0.7885" style="stop-color:#E76E30"/>
		<stop  offset="1" style="stop-color:#E84646"/>
	</linearGradient>
	<path fill="url(#SVGID_18_)" stroke="url(#SVGID_19_)" stroke-width="14" stroke-miterlimit="10" d="M1607.4,1366.5
		c-36.2,34.6-76.4,51.3-120.4,50c-44.1-1.2-78.6-16.5-103.8-45.7c-25.1-29.2-37.5-69-37.1-119.2c0.4-50.2,14-89.8,40.8-118.6
		c26.8-28.8,59.1-43.2,97-43.2c37.9,0,70.6,15.2,98.2,45.7c27.6,30.5,39.3,78.2,35.2,143.3h-189c0.8,10.7,5.6,22.6,14.2,35.8
		c8.6,13.2,24.7,20.6,48.2,22.2c23.5,1.7,42.6-6.2,57.4-23.5L1607.4,1366.5z M1430.7,1217h106.2c-2.5-14.8-7.6-27.4-15.4-37.7
		c-7.8-10.3-20.4-15.6-37.7-16.1c-17.3-0.4-29.9,4.7-37.7,15.4C1438.3,1189.4,1433.2,1202.2,1430.7,1217z"/>
	<linearGradient id="SVGID_20_" gradientUnits="userSpaceOnUse" x1="184.5403" y1="1752.1324" x2="184.5403" y2="1334.6444">
		<stop  offset="0" style="stop-color:#E5C500"/>
		<stop  offset="0.1465" style="stop-color:#E5BF03"/>
		<stop  offset="0.3383" style="stop-color:#E6AF0C"/>
		<stop  offset="0.5551" style="stop-color:#E6941B"/>
		<stop  offset="0.7885" style="stop-color:#E76E30"/>
		<stop  offset="1" style="stop-color:#E84646"/>
	</linearGradient>
	<linearGradient id="SVGID_21_" gradientUnits="userSpaceOnUse" x1="184.5403" y1="1327.6444" x2="184.5403" y2="1759.1324">
		<stop  offset="0" style="stop-color:#E5C500"/>
		<stop  offset="0.1465" style="stop-color:#E5BF03"/>
		<stop  offset="0.3383" style="stop-color:#E6AF0C"/>
		<stop  offset="0.5551" style="stop-color:#E6941B"/>
		<stop  offset="0.7885" style="stop-color:#E76E30"/>
		<stop  offset="1" style="stop-color:#E84646"/>
	</linearGradient>
	<path fill="url(#SVGID_20_)" stroke="url(#SVGID_21_)" stroke-width="14" stroke-miterlimit="10" d="M23.3,1334.6h322.4v82.8H225.9
		v334.7h-86.8v-334.7H23.3V1334.6z"/>
	<linearGradient id="SVGID_22_" gradientUnits="userSpaceOnUse" x1="485.9075" y1="1752.1324" x2="485.9075" y2="1317.3519">
		<stop  offset="0" style="stop-color:#E5C500"/>
		<stop  offset="0.1465" style="stop-color:#E5BF03"/>
		<stop  offset="0.3383" style="stop-color:#E6AF0C"/>
		<stop  offset="0.5551" style="stop-color:#E6941B"/>
		<stop  offset="0.7885" style="stop-color:#E76E30"/>
		<stop  offset="1" style="stop-color:#E84646"/>
	</linearGradient>
	<linearGradient id="SVGID_23_" gradientUnits="userSpaceOnUse" x1="485.9041" y1="1306.1012" x2="485.9041" y2="1759.1324">
		<stop  offset="0" style="stop-color:#E5C500"/>
		<stop  offset="0.1465" style="stop-color:#E5BF03"/>
		<stop  offset="0.3383" style="stop-color:#E6AF0C"/>
		<stop  offset="0.5551" style="stop-color:#E6941B"/>
		<stop  offset="0.7885" style="stop-color:#E76E30"/>
		<stop  offset="1" style="stop-color:#E84646"/>
	</linearGradient>
	<path fill="url(#SVGID_22_)" stroke="url(#SVGID_23_)" stroke-width="14" stroke-miterlimit="10" d="M432.8,1317.4v139.6
		c26.3-18.9,54.1-27.6,83.4-25.9c29.2,1.7,54.1,13,74.7,34c20.6,21,30.9,54.1,30.9,99.4v187.7h-80.9v-190.2
		c-0.4-13.2-5.6-25.3-15.4-36.4c-9.9-11.1-22.9-16.7-38.9-16.7c-16.1,0-29,5.1-38.9,15.4c-9.9,10.3-14.8,22.4-14.8,36.4v191.5h-82.1
		l-0.6-394L432.8,1317.4z"/>
	<linearGradient id="SVGID_24_" gradientUnits="userSpaceOnUse" x1="731.3853" y1="1752.1324" x2="731.3853" y2="1431.5881">
		<stop  offset="0" style="stop-color:#E5C500"/>
		<stop  offset="0.1465" style="stop-color:#E5BF03"/>
		<stop  offset="0.3383" style="stop-color:#E6AF0C"/>
		<stop  offset="0.5551" style="stop-color:#E6941B"/>
		<stop  offset="0.7885" style="stop-color:#E76E30"/>
		<stop  offset="1" style="stop-color:#E84646"/>
	</linearGradient>
	<linearGradient id="SVGID_25_" gradientUnits="userSpaceOnUse" x1="731.8904" y1="1424.5881" x2="731.8904" y2="1759.1324">
		<stop  offset="0" style="stop-color:#E5C500"/>
		<stop  offset="0.1465" style="stop-color:#E5BF03"/>
		<stop  offset="0.3383" style="stop-color:#E6AF0C"/>
		<stop  offset="0.5551" style="stop-color:#E6941B"/>
		<stop  offset="0.7885" style="stop-color:#E76E30"/>
		<stop  offset="1" style="stop-color:#E84646"/>
	</linearGradient>
	<path fill="url(#SVGID_24_)" stroke="url(#SVGID_25_)" stroke-width="14" stroke-miterlimit="10" d="M629.5,1752.1v-313.7H711v21
		c17.3-18.1,37.7-27.4,61.1-27.8c23.5-0.4,43.8,6.4,61.1,20.4l-23.5,81.5c-17.3-13.2-33.8-19.3-49.4-18.5
		c-15.6,0.8-27.8,5.1-36.4,13c-8.6,7.8-13,19.6-13,35.2v189H629.5z"/>
	<linearGradient id="SVGID_26_" gradientUnits="userSpaceOnUse" x1="951.684" y1="1757.1096" x2="951.684" y2="1430.3611">
		<stop  offset="0" style="stop-color:#E5C500"/>
		<stop  offset="0.1465" style="stop-color:#E5BF03"/>
		<stop  offset="0.3383" style="stop-color:#E6AF0C"/>
		<stop  offset="0.5551" style="stop-color:#E6941B"/>
		<stop  offset="0.7885" style="stop-color:#E76E30"/>
		<stop  offset="1" style="stop-color:#E84646"/>
	</linearGradient>
	<linearGradient id="SVGID_27_" gradientUnits="userSpaceOnUse" x1="951.684" y1="1423.3611" x2="951.684" y2="1764.1096">
		<stop  offset="0" style="stop-color:#E5C500"/>
		<stop  offset="0.1465" style="stop-color:#E5BF03"/>
		<stop  offset="0.3383" style="stop-color:#E6AF0C"/>
		<stop  offset="0.5551" style="stop-color:#E6941B"/>
		<stop  offset="0.7885" style="stop-color:#E76E30"/>
		<stop  offset="1" style="stop-color:#E84646"/>
	</linearGradient>
	<path fill="url(#SVGID_26_)" stroke="url(#SVGID_27_)" stroke-width="14" stroke-miterlimit="10" d="M1091.6,1595.3
		c0,55.2-14,96.1-42,122.9c-28,26.8-61.3,39.7-100,38.9c-38.7-0.8-71.2-16.1-97.6-45.7c-26.4-29.6-39.7-69.8-40.1-120.4
		c-0.4-50.6,13-90,40.1-118c27.2-28,59.3-42.2,96.3-42.6c37.1-0.4,70.2,12.6,99.4,38.9C1077,1495.6,1091.6,1537.6,1091.6,1595.3z
		 M1008.8,1595.3c0-26.3-4.9-46.7-14.8-61.1c-9.9-14.4-23.7-21.8-41.4-22.2c-17.7-0.4-31.9,6.4-42.6,20.4
		c-10.7,14-16.1,34-16.1,59.9c0,25.9,4.9,46.5,14.8,61.8c9.9,15.2,23.7,23.1,41.4,23.5c17.7,0.4,31.9-7.6,42.6-24.1
		C1003.5,1636.9,1008.8,1617.5,1008.8,1595.3z"/>
	<linearGradient id="SVGID_28_" gradientUnits="userSpaceOnUse" x1="1232.1593" y1="1757.7037" x2="1232.1593" y2="1438.399">
		<stop  offset="0" style="stop-color:#E5C500"/>
		<stop  offset="0.1465" style="stop-color:#E5BF03"/>
		<stop  offset="0.3383" style="stop-color:#E6AF0C"/>
		<stop  offset="0.5551" style="stop-color:#E6941B"/>
		<stop  offset="0.7885" style="stop-color:#E76E30"/>
		<stop  offset="1" style="stop-color:#E84646"/>
	</linearGradient>
	<linearGradient id="SVGID_29_" gradientUnits="userSpaceOnUse" x1="1232.1593" y1="1431.399" x2="1232.1593" y2="1764.7037">
		<stop  offset="0" style="stop-color:#E5C500"/>
		<stop  offset="0.1465" style="stop-color:#E5BF03"/>
		<stop  offset="0.3383" style="stop-color:#E6AF0C"/>
		<stop  offset="0.5551" style="stop-color:#E6941B"/>
		<stop  offset="0.7885" style="stop-color:#E76E30"/>
		<stop  offset="1" style="stop-color:#E84646"/>
	</linearGradient>
	<path fill="url(#SVGID_28_)" stroke="url(#SVGID_29_)" stroke-width="14" stroke-miterlimit="10" d="M1098.1,1438.4h81.5v174.2
		c0,20.6,3.7,36.9,11.1,48.8c7.4,11.9,20.4,17.7,38.9,17.3c18.5-0.4,32.3-6.6,41.4-18.5c9.1-11.9,13.6-29.8,13.6-53.7v-168h81.5
		v313.7h-81.5v-22.2c-25.5,18.1-51.3,27.4-77.2,27.8c-25.9,0.4-50.6-8.8-74.1-27.8c-23.5-18.9-35.2-56.4-35.2-112.4V1438.4z"/>
	<linearGradient id="SVGID_30_" gradientUnits="userSpaceOnUse" x1="1507.3602" y1="1865.7684" x2="1507.3602" y2="1430.2943">
		<stop  offset="0" style="stop-color:#E5C500"/>
		<stop  offset="0.1465" style="stop-color:#E5BF03"/>
		<stop  offset="0.3383" style="stop-color:#E6AF0C"/>
		<stop  offset="0.5551" style="stop-color:#E6941B"/>
		<stop  offset="0.7885" style="stop-color:#E76E30"/>
		<stop  offset="1" style="stop-color:#E84646"/>
	</linearGradient>
	<linearGradient id="SVGID_31_" gradientUnits="userSpaceOnUse" x1="1507.3602" y1="1423.2943" x2="1507.3602" y2="1873.3289">
		<stop  offset="0" style="stop-color:#E5C500"/>
		<stop  offset="0.1465" style="stop-color:#E5BF03"/>
		<stop  offset="0.3383" style="stop-color:#E6AF0C"/>
		<stop  offset="0.5551" style="stop-color:#E6941B"/>
		<stop  offset="0.7885" style="stop-color:#E76E30"/>
		<stop  offset="1" style="stop-color:#E84646"/>
	</linearGradient>
	<path fill="url(#SVGID_30_)" stroke="url(#SVGID_31_)" stroke-width="14" stroke-miterlimit="10" d="M1560.5,1438.4h81.5v273
		c0,55.2-10.5,93.3-31.5,114.3c-21,21-55.4,34.4-103.1,40.1l-29.6-64.2c28-2.5,48.8-8.4,62.4-17.9c13.6-9.5,20.4-27.4,20.4-53.7
		c-20.6,18.1-44.9,27.4-72.9,27.8c-28,0.4-53.9-12.8-77.8-39.5c-23.9-26.8-36.2-67.3-37.1-121.7c-0.8-54.3,10.9-95.9,35.2-124.8
		c24.3-28.8,53.1-42.6,86.5-41.4c33.3,1.2,55.4,9.7,66.1,25.3V1438.4z M1560.5,1652.1v-117.3c-18.9-18.1-36.4-26.8-52.5-25.9
		c-16.1,0.8-28.6,7.8-37.7,21c-9.1,13.2-13.8,33.1-14.2,59.9c-0.4,26.8,4.5,48.6,14.8,65.5c10.3,16.9,24.3,25.1,42,24.7
		C1530.6,1679.5,1546.5,1670.2,1560.5,1652.1z"/>
	<linearGradient id="SVGID_32_" gradientUnits="userSpaceOnUse" x1="1783.4807" y1="1752.1324" x2="1783.4807" y2="1317.3519">
		<stop  offset="0" style="stop-color:#E5C500"/>
		<stop  offset="0.1465" style="stop-color:#E5BF03"/>
		<stop  offset="0.3383" style="stop-color:#E6AF0C"/>
		<stop  offset="0.5551" style="stop-color:#E6941B"/>
		<stop  offset="0.7885" style="stop-color:#E76E30"/>
		<stop  offset="1" style="stop-color:#E84646"/>
	</linearGradient>
	<linearGradient id="SVGID_33_" gradientUnits="userSpaceOnUse" x1="1783.4768" y1="1304.4939" x2="1783.4768" y2="1760.1324">
		<stop  offset="0" style="stop-color:#E5C500"/>
		<stop  offset="0.1465" style="stop-color:#E5BF03"/>
		<stop  offset="0.3383" style="stop-color:#E6AF0C"/>
		<stop  offset="0.5551" style="stop-color:#E6941B"/>
		<stop  offset="0.7885" style="stop-color:#E76E30"/>
		<stop  offset="1" style="stop-color:#E84646"/>
	</linearGradient>
	<path fill="url(#SVGID_32_)" stroke="url(#SVGID_33_)" stroke-width="16" stroke-miterlimit="10" d="M1730.4,1317.4v139.6
		c26.3-18.9,54.1-27.6,83.4-25.9c29.2,1.7,54.1,13,74.7,34c20.6,21,30.9,54.1,30.9,99.4v187.7h-80.9v-190.2
		c-0.4-13.2-5.6-25.3-15.4-36.4s-22.9-16.7-38.9-16.7s-29,5.1-38.9,15.4c-9.9,10.3-14.8,22.4-14.8,36.4v191.5h-82.1l-0.6-394
		L1730.4,1317.4z"/>
</g>
</svg>
