<?xml version="1.0" encoding="utf-8"?>
<!-- Svg Vector Icons : http://www.onlinewebfonts.com/icon -->
<!DOCTYPE svg PUBLIC "-//W3C//DTD SVG 1.1//EN" "http://www.w3.org/Graphics/SVG/1.1/DTD/svg11.dtd">
<svg version="1.1" xmlns="http://www.w3.org/2000/svg" xmlns:xlink="http://www.w3.org/1999/xlink" x="0px" y="0px" viewBox="0 0 1000 1000" enable-background="new 0 0 1000 1000" xml:space="preserve">
<metadata> Svg Vector Icons : http://www.onlinewebfonts.com/icon </metadata>
<g><path d="M392.1,619.3c-30.6-8.9-15.1-14.3-35.4-14.3c-49.3,0-80.2,31.3-80.2,70c0,38.7,23.7,70,73,70c49.3,0,73.1-31.3,73.1-70V465l214-105v224.3C606,575.5,624.2,570,604,570c-49.3,0-78.8,31.3-78.8,70c0,38.7,21.6,70,71,70c49.3,0,71-31.3,71-70V255L392.1,395L392.1,619.3L392.1,619.3z"/><path d="M500,10C229.4,10,10,229.4,10,500s219.4,490,490,490c270.7,0,490-219.4,490-490S770.7,10,500,10z M500,913.4C271.7,913.4,86.6,728.3,86.6,500S271.7,86.6,500,86.6c228.4,0,413.4,185.1,413.4,413.4S728.4,913.4,500,913.4z"/></g>
</svg>