<?xml version="1.0" encoding="utf-8"?>
<!-- Svg Vector Icons : http://www.onlinewebfonts.com/icon -->
<!DOCTYPE svg PUBLIC "-//W3C//DTD SVG 1.1//EN" "http://www.w3.org/Graphics/SVG/1.1/DTD/svg11.dtd">
<svg version="1.1" xmlns="http://www.w3.org/2000/svg" xmlns:xlink="http://www.w3.org/1999/xlink" x="0px" y="0px" viewBox="0 0 1000 1000" enable-background="new 0 0 1000 1000" xml:space="preserve">
<metadata> Svg Vector Icons : http://www.onlinewebfonts.com/icon </metadata>
<g><path d="M500,10C229.4,10,10,229.4,10,500c0,270.6,219.4,490,490,490c270.6,0,490-219.4,490-490C990,229.4,770.6,10,500,10z M602.8,254.3c0-12.7,9.9-23,22.2-23c12.3,0,22.2,10.3,22.2,23V316c0,12.7-9.9,23-22.2,23c-12.3,0-22.2-10.3-22.2-23V254.3z M477.1,254.3c0-12.7,9.9-23,22.2-23c12.3,0,22.2,10.3,22.2,23V316c0,12.7-9.9,23-22.2,23c-12.3,0-22.2-10.3-22.2-23V254.3z M350.6,254.3c0-12.7,9.9-23,22.2-23c12.3,0,22.2,10.3,22.2,23V316c0,12.7-9.9,23-22.2,23c-12.3,0-22.2-10.3-22.2-23V254.3z M739.8,304.7v440.9c0,29.3-24.2,26.8-24.2,26.8H283.8c-28,0-25.1-26.1-25.1-26.1V304.7c0-30.7,25.1-24.3,25.1-24.3s20.3-0.2,45.4,0c-3.5,86.8,34.9,83,43.6,83c63.8-2.1,53.6-83,53.6-83s4.9-0.2,25.2,0c-2.1,88.9,39.1,81.6,47.8,81.6c58.2-9.8,48-82.6,48-82.6s13.3-0.5,25.2,0c4.2,81.6,40.5,83.3,52.7,83.3c51.3-3.5,43.1-83,43.1-83s19.6-0.9,48.2,0.2C743.6,277.4,739.8,304.7,739.8,304.7z"/><path d="M680,445.5c0-12.1-9.5-21.9-21.2-21.9H341.3c-11.7,0-21.2,9.8-21.2,21.9v4.4c0,12.1,9.5,21.9,21.2,21.9h317.5c11.7,0,21.2-9.8,21.2-21.9V445.5L680,445.5L680,445.5z"/><path d="M678.6,553.8c0-12.1-9.5-21.9-21.2-21.9H339.9c-11.7,0-21.2,9.8-21.2,21.9v4.4c0,12.1,9.5,21.9,21.2,21.9h317.5c11.7,0,21.2-9.8,21.2-21.9V553.8L678.6,553.8L678.6,553.8z"/><path d="M678.6,662.1c0-12.1-9.5-21.9-21.2-21.9H339.9c-11.7,0-21.2,9.8-21.2,21.9v4.4c0,12.1,9.5,21.9,21.2,21.9h317.5c11.7,0,21.2-9.8,21.2-21.9V662.1L678.6,662.1L678.6,662.1z"/></g>
</svg>