<?xml version="1.0" encoding="utf-8"?>
<!-- Generator: Adobe Illustrator 21.0.0, SVG Export Plug-In . SVG Version: 6.00 Build 0)  -->
<svg version="1.1" id="Layer_1" xmlns="http://www.w3.org/2000/svg" xmlns:xlink="http://www.w3.org/1999/xlink" x="0px" y="0px"
	 width="50px" height="50px" viewBox="0 0 50 50" enable-background="new 0 0 50 50" xml:space="preserve" fill="rgba(0, 160, 32,1)">
<path d="M23,10.545c-6.459,0.837-11.568,5.909-12.46,12.351H2.091C3.054,11.81,11.898,3.004,23,2.1V10.545z"/>
<path d="M39.209,22.896C38.329,16.537,33.341,11.507,27,10.574V2.122c10.984,1.015,19.703,9.771,20.659,20.774H39.209z"/>
<path d="M32.489,46.493c-2.382,0.841-4.944,1.303-7.614,1.303c-11.973,0-21.793-9.19-22.807-20.9h8.475
	c0.977,7.058,7.006,12.5,14.333,12.5c1.402,0,2.751-0.211,4.031-0.586L32.489,46.493z"/>
<path d="M36.344,44.704l-3.579-7.675c3.437-2.241,5.868-5.883,6.454-10.133h8.453C47.012,34.514,42.628,41.057,36.344,44.704z"/>
</svg>
