<?xml version="1.0" encoding="utf-8"?>
<!-- Generator: Adobe Illustrator 21.0.0, SVG Export Plug-In . SVG Version: 6.00 Build 0)  -->
<svg version="1.1" id="Layer_1" xmlns="http://www.w3.org/2000/svg" xmlns:xlink="http://www.w3.org/1999/xlink" x="0px" y="0px" width="50px" height="50px" viewBox="0 0 50 50" enable-background="new 0 0 50 50" xml:space="preserve"><path d="M27,22V11c0-3.391,1.328-5.642,3.984-5.642c1.047,0,1.906,0.211,2.578,0.633V2.522C32.906,2.241,31.984,2.1,30.797,2.1	C26,2.1,23,5,23,11v11h-7v4h7v14c0,3.391-1.328,5.642-3.984,5.642c-1.047,0-1.906-0.211-2.578-0.633v3.469 c0.656,0.281,1.578,0.422,2.766,0.422C24,48.9,27,46,27,40V26h7v-4H27z"/>
</svg>
