<?xml version="1.0" encoding="utf-8"?>
<!-- Generator: Adobe Illustrator 21.0.0, SVG Export Plug-In . SVG Version: 6.00 Build 0)  -->
<svg version="1.1" id="Layer_1" xmlns="http://www.w3.org/2000/svg" xmlns:xlink="http://www.w3.org/1999/xlink" x="0px" y="0px"
	 width="50px" height="50px" viewBox="0 0 50 50" enable-background="new 0 0 50 50" xml:space="preserve">
<g>
	<path d="M41.678,6.369c0.301,0,0.58,0.054,0.838,0.161s0.486,0.258,0.688,0.451c0.2,0.193,0.357,0.419,0.473,0.677
		c0.114,0.258,0.172,0.537,0.172,0.838v33.645c0,0.301-0.058,0.584-0.172,0.849c-0.115,0.265-0.272,0.494-0.473,0.688
		c-0.201,0.193-0.43,0.344-0.688,0.451s-0.537,0.161-0.838,0.161h-6.23V32.773c0-0.314-0.111-0.58-0.333-0.795
		c-0.223-0.215-0.477-0.322-0.763-0.322H15.467c-0.315,0-0.58,0.107-0.795,0.322s-0.322,0.48-0.322,0.795v11.516H8.162
		c-0.301,0-0.58-0.054-0.838-0.161s-0.483-0.258-0.677-0.451s-0.344-0.423-0.451-0.688s-0.161-0.548-0.161-0.849V8.496
		c0-0.602,0.204-1.106,0.612-1.515s0.913-0.612,1.515-0.612H41.678z M37.553,11.676c0-0.301-0.107-0.555-0.322-0.763
		c-0.215-0.208-0.48-0.312-0.795-0.312H13.361c-0.315,0-0.577,0.104-0.784,0.312c-0.208,0.208-0.312,0.462-0.312,0.763v8.357
		c0,0.301,0.104,0.555,0.312,0.763c0.207,0.208,0.469,0.312,0.784,0.312h23.074c0.314,0,0.58-0.104,0.795-0.312
		c0.215-0.208,0.322-0.462,0.322-0.763V11.676z M24.898,44.289h-6.316v-6.316h6.316V44.289z"/>
</g>
</svg>
